**ABCDEFGHIJKLMNOPQRSTUVWXYZabcdefghijklmnopqrstuvwxyz**************************
**PARASOLID !"#$%&'()*+,-./:;<=>?@[\]^_`{|}~0123456789**************************
**PART1;
MC=AMD64;
MC_MODEL=Intel64 Family 6 Model 94 Stepping 3, GenuineIntel;
MC_ID=unknown;
OS=Windows_NT;
OS_RELEASE=unknown;
FRU=Parasolid Version 28.0, build 174,  7- 3-2015;
APPL=SOLIDWORKS 2016-2015266;
SITE=;
USER=unknown;
FORMAT=text;
GUISE=transmit;
KEY=ferrite;
FILE=ferrite.x_t;
DATE=Sat Sep 25 15:51:28 2021;
**PART2;
SCH=SCH_2800174_28002;
USFLD_SIZE=0;
**PART3;
**END_OF_HEADER*****************************************************************
T51 : TRANSMIT FILE created by modeller version 280017423 SCH_2800174_28002_1300
6200 0 12 30 CCCCCCCCCCCCCDI5 owner1040 0 CCCCCCCCCA13 boundary_mesh1006 0 A16 i
ndex_map_offset0 0 1 dA9 index_map82 0 A17 node_id_index_map82 0 A20 schema_embe
dding_map82 0 A5 child12 0 A14 lowest_node_id0 0 1 dZ1 242 2 3 0 0 0 0 1e3 1e-8
 0 4 0 1 0 1 1 5 6 7 8 9 10 11 0 0 0 0 0 0 0 81 255 2 2 182 12 1 0 0 0 0 13 0 70
 11 CI9 list_type0 0 1 uI10 notransmit0 0 1 lCCCDCCDI12 finger_index0 0 1 dI12 f
inger_block1012 0 CZ3 0 4 T1 0 0 3 20 1 14 14 13 255 5 134 0 1 0 15 0 0 16 0 50
 255 6 127 0 15 17 0 0 +.0325 -.003 .0562916512459886 .866025403784439 0 .5 .5 0
 -.866025403784439 30 255 7 133 0 18 19 0 0 +.065 -.003 -1503427012513235e-32 0
 1 0 29 255 8 98 0 20 21 0 .0325 -.001 .0562916512459886 19 8 CCCCCCCA5 owner12
 0 Z9 40 0 1 16 0 22 V0 16 255 10 104 0 ?23 0 24 25 0 0 1 18 255 11 37 0 26 0 27
 28 ?1 17 255 26 0 29 30 31 11 23 10 0 32 -18 27 34 0 33 11 34 35 ?1 29 28 39 0
 11 35 36 .0325 -.003 .0562916512459886 29 35 36 0 27 37 28 -.0325 -.003 .056291
6512459886 29 36 103 0 38 28 39 .065 -.001 -1503427012513235e-32 18 38 90 0 40 4
1 0 36 ?1 29 39 102 0 41 36 42 .0325 -.001 -.0562916512459886 18 41 89 0 43 44 3
8 39 ?1 29 42 101 0 44 39 45 -.0325 -.001 -.0562916512459886 18 44 88 0 46 47 41
 42 ?1 29 45 100 0 47 42 21 -.065 -.001 716910095079708e-32 18 47 87 0 48 49 44
 45 ?1 29 21 99 0 49 45 8 -.0325 -.001 .0562916512459886 18 49 86 0 50 20 47 21
 ?1 17 50 0 51 52 53 49 33 24 0 54 +18 20 85 0 23 55 49 8 ?1 17 23 0 56 57 58 20
 26 10 0 31 +18 55 22 0 59 60 20 61 ?1 17 59 0 62 63 64 55 40 18 0 65 -18 60 25
 0 66 67 55 68 ?1 29 61 24 0 55 0 68 .065 -.003 -1503427012513235e-32 29 68 27 0
 60 61 69 .0325 -.003 -.0562916512459886 29 69 30 0 67 68 37 -.0325 -.003 -.0562
916512459886 18 67 28 0 70 34 60 69 ?1 29 37 33 0 34 69 35 -.065 -.003 716910095
079708e-32 18 34 31 0 71 27 67 37 ?1 17 71 0 51 53 52 34 48 72 0 73 -15 255 51 1
12 0 52 74 0 17 53 0 51 50 71 27 73 75 0 76 +17 52 0 51 71 50 47 54 77 0 78 -17
 48 0 79 80 81 47 71 72 0 52 +16 72 106 0 ?48 24 82 83 0 0 1 17 73 0 84 85 76 34
 53 75 0 81 -15 84 3 0 32 86 0 17 85 0 84 87 73 67 81 88 0 89 -17 76 0 84 73 32
 27 58 90 0 0 -16 75 16 0 ?53 90 88 91 0 0 1 17 81 0 79 48 70 34 85 88 0 0 +15 7
9 114 0 80 92 0 17 70 0 79 81 80 67 46 82 0 85 -16 88 13 0 ?81 75 93 94 0 0 1 16
 93 10 0 ?89 88 95 96 0 0 1 30 94 14 0 88 96 91 0 +-.0325 -.003 -.05629165124598
86 -.5 0 .866025403784439 30 96 11 0 93 97 94 0 +.0325 -.003 -.0562916512459886
 -1 0 0 30 91 17 0 75 94 98 0 +-.065 -.003 716910095079708e-32 .5 0 .86602540378
4439 30 98 20 0 90 91 99 0 +-.0325 -.003 .0562916512459886 1 0 106752213906265e-
30 16 90 19 0 ?58 18 75 98 0 0 1 30 99 97 0 100 98 101 0 +.0325 -.001 .056291651
2459886 .5 0 -.866025403784439 16 100 81 0 ?102 103 0 99 0 0 1 30 101 96 0 103 9
9 104 0 +.065 -.001 -1503427012513235e-32 -.5 0 -.866025403784439 16 103 77 0 ?1
05 106 100 101 0 0 1 30 104 95 0 106 101 107 0 +.0325 -.001 -.0562916512459886 -
1 0 0 16 106 73 0 ?108 109 103 104 0 0 1 30 107 94 0 109 104 110 0 +-.0325 -.001
 -.0562916512459886 -.5 0 .866025403784439 16 109 69 0 ?78 77 106 107 0 0 1 30 1
10 93 0 77 107 111 0 +-.065 -.001 716910095079708e-32 .5 0 .866025403784439 16 7
7 65 0 ?54 112 109 110 0 0 1 30 111 92 0 112 110 25 0 +-.0325 -.001 .05629165124
59886 1 0 106752213906265e-30 16 112 61 0 ?113 114 77 111 0 0 1 30 25 128 0 10 1
11 115 0 +.0325 -.003 .0562916512459886 0 1 0 30 115 129 0 24 25 83 0 +-.0325 -.
003 .0562916512459886 0 1 0 16 24 105 0 ?50 10 72 115 0 0 1 30 83 130 0 72 115 1
16 0 +-.065 -.003 716910095079708e-32 0 1 0 30 116 131 0 82 83 19 0 +-.0325 -.00
3 -.0562916512459886 0 1 0 16 82 107 0 ?46 72 117 116 0 0 1 30 19 132 0 117 116
 7 0 +.0325 -.003 -.0562916512459886 0 1 0 16 117 108 0 ?43 82 18 19 0 0 1 17 43
 0 62 64 63 41 66 117 0 118 +16 18 109 0 ?40 117 90 7 0 0 1 17 40 0 29 31 30 38
 59 18 0 64 +15 29 120 0 31 15 0 17 31 0 29 26 40 20 102 100 0 113 -17 30 0 29 4
0 26 55 32 114 0 0 +17 64 0 62 59 43 38 105 103 0 102 -15 62 118 0 64 119 0 17 1
05 0 120 108 102 41 64 103 0 0 +17 102 0 120 105 113 38 31 100 0 0 +15 120 60 0
 102 121 0 17 113 0 120 102 54 20 57 112 0 0 +17 54 0 120 113 78 49 52 77 0 57 +
17 57 0 56 33 23 49 113 112 0 0 -15 56 110 0 57 122 0 17 33 0 56 58 57 27 50 24
 0 53 -17 58 0 56 23 33 11 76 90 0 0 +14 255 122 111 123 ?74 15 56 5 124 +0 0 74
 15 22 81 1 123 228 125 122 126 0 0 127 128 14 74 113 127 ?92 122 51 5 129 +0 0
 92 122 22 14 15 121 130 ?122 0 29 5 6 +0 0 122 0 22 50 124 122 0 122 131 129 0
 +-.0325 -.003 .0562916512459886 -106752213906265e-30 0 1 1 0 106752213906265e-3
0 13 22 41 0 0 0 0 0 0 9 15 50 131 91 0 121 132 124 0 +0 -.001 0 0 1 0 0 0 1 50
 129 123 0 74 124 133 0 +-.065 -.003 716910095079708e-32 -.866025403784439 0 .5
 .5 0 .866025403784439 50 133 124 0 92 129 134 0 +-.0325 -.003 -.056291651245988
6 -.866025403784439 0 -.5 -.5 0 .866025403784439 14 92 115 135 ?136 74 79 5 133
 +0 0 136 74 22 50 134 125 0 136 133 17 0 +.0325 -.003 -.0562916512459886 0 0 -1
 -1 0 0 14 136 117 137 ?119 92 138 5 134 +0 0 119 92 22 50 17 126 0 119 134 6 0
 +.065 -.003 -1503427012513235e-32 .866025403784439 0 -.5 -.5 0 -.86602540378443
9 14 119 119 139 ?86 136 62 5 17 +0 0 86 136 22 81 1 139 238 125 119 140 0 137 1
41 142 14 86 1 141 ?121 119 84 5 132 -0 0 121 119 22 81 1 141 240 125 86 143 0 1
39 144 145 14 121 59 144 ?0 86 120 5 131 +0 0 0 86 22 50 132 2 0 86 0 131 0 +0 -
.003 0 0 1 0 0 0 1 81 1 144 242 125 121 146 0 141 0 147 80 255 1 125 148 149 900
0 1 1 1 1 1 1 1 1 0 FFFFTFTFFFFFFF1 81 1 146 225 150 121 0 144 143 0 151 82 255
 1 147 -2009071470 80 1 150 0 152 8001 0 0 0 0 3 5 0 0 0 FFFFTFTFFFFFFF2 81 1 14
3 224 150 86 0 141 140 146 153 83 255 3 151 1 1 1 81 1 140 223 150 119 0 139 154
 143 155 83 3 153 1 1 1 81 1 154 222 150 136 0 137 156 140 157 83 3 155 1 1 1 81
 1 137 236 125 136 154 0 135 139 158 81 1 156 221 150 92 0 135 159 154 160 83 3
 157 1 1 1 81 1 135 234 125 92 156 0 130 137 161 81 1 159 220 150 74 0 127 126 1
56 162 83 3 160 1 1 1 81 1 127 230 125 74 159 0 123 130 163 81 1 126 219 150 122
 0 123 164 159 165 83 3 162 1 1 1 81 1 164 218 150 15 0 130 0 126 166 83 3 165 1
 1 1 81 1 130 232 125 15 164 0 127 135 167 83 3 166 1 1 1 82 1 167 -2007105390 8
2 1 163 -2007629678 82 1 161 -2007498606 82 1 158 -2007367534 79 255 15 152 SDL/
TYSA_COLOUR79 14 149 SWEntUnchanged82 1 145 -2017066862 82 1 142 -2007236462 15
 138 116 0 118 136 0 17 118 0 138 66 46 41 108 106 0 105 -17 66 0 138 89 118 60
 43 117 0 87 -17 46 0 138 118 89 44 70 82 0 80 +17 108 0 120 78 105 44 118 106 0
 0 +17 78 0 120 54 108 47 80 109 0 0 +17 80 0 79 70 48 44 78 109 0 108 -17 89 0
 138 46 66 67 87 93 0 0 +17 87 0 84 65 85 60 89 93 0 63 -17 65 0 84 32 87 55 63
 95 0 30 -17 63 0 62 43 59 60 65 95 0 0 +16 95 7 0 ?63 93 114 97 0 0 1 16 114 4
 0 ?30 95 112 168 0 0 1 30 97 8 0 95 168 96 0 +.065 -.003 -1503427012513235e-32
 -.5 0 -.866025403784439 30 168 5 0 114 0 97 0 +.0325 -.003 .0562916512459886 .5
 0 -.866025403784439 17 32 0 84 76 65 11 30 114 0 58 -82 1 128 -2007760750 19 16
 135 0 1 0 9 5 S0 74 4 CI16 index_map_offset0 0 1 dCCZ20 14 3 0 0 144 2 146 0 0
 0 0 0 0 0 0 0 0 0 0 0 0 0 0 0 80 2 12 169 170 8004 0 0 0 0 3 5 0 0 0 FFTFFFFFFF
FFFF2 3 83 1 13 1e3 79 16 170 SDL/TYSA_DENSITY1 0 
