**ABCDEFGHIJKLMNOPQRSTUVWXYZabcdefghijklmnopqrstuvwxyz**************************
**PARASOLID !"#$%&'()*+,-./:;<=>?@[\]^_`{|}~0123456789**************************
**PART1;
MC=AMD64;
MC_MODEL=Intel64 Family 6 Model 94 Stepping 3, GenuineIntel;
MC_ID=unknown;
OS=Windows_NT;
OS_RELEASE=unknown;
FRU=Parasolid Version 28.0, build 174,  7- 3-2015;
APPL=SOLIDWORKS 2016-2015266;
SITE=;
USER=unknown;
FORMAT=text;
GUISE=transmit;
KEY=vacuum;
FILE=vacuum.x_t;
DATE=Mon Sep 27 22:05:15 2021;
**PART2;
SCH=SCH_2800174_28002;
USFLD_SIZE=0;
**PART3;
**END_OF_HEADER*****************************************************************
T51 : TRANSMIT FILE created by modeller version 280017423 SCH_2800174_28002_1300
6200 0 12 30 CCCCCCCCCCCCCDI5 owner1040 0 CCCCCCCCCA13 boundary_mesh1006 0 A16 i
ndex_map_offset0 0 1 dA9 index_map82 0 A17 node_id_index_map82 0 A20 schema_embe
dding_map82 0 A5 child12 0 A14 lowest_node_id0 0 1 dZ1 342 0 2 0 0 0 0 1e3 1e-8
 0 3 0 1 0 1 1 4 5 6 7 8 9 10 0 0 0 0 0 0 0 70 11 CI9 list_type0 0 1 uI10 notran
smit0 0 1 lCCCDCCDI12 finger_index0 0 1 dI12 finger_block1012 0 CZ2 0 4 T1 0 0 2
 20 1 11 11 13 255 4 134 0 1 0 12 0 0 13 0 50 255 5 127 0 12 14 0 0 +.0444559707
276012 -.03 .077 .866025403784439 0 .5 .5 0 -.866025403784439 30 255 6 133 0 15
 16 0 0 +.0889119414552024 -.03 -1425286784003444e-32 0 1 0 29 255 7 39 0 10 17
 0 .0444559707276012 -.03 .077 19 8 CCCCCCCA5 owner12 0 Z8 40 0 1 13 0 18 V0 16
 255 9 104 0 ?19 0 20 21 0 0 1 18 255 10 37 0 22 0 23 7 ?1 17 255 22 0 24 25 26
 10 19 9 0 27 -18 23 34 0 28 10 29 17 ?1 17 28 0 30 31 32 23 33 20 0 34 -18 29 3
1 0 35 23 36 37 ?1 29 17 36 0 23 37 7 -.0444559707276012 -.03 .077 29 37 33 0 29
 38 17 -.0889119414552024 -.03 1356928659013526e-32 29 38 30 0 36 39 37 -.044455
9707276012 -.03 -.077 18 36 28 0 40 29 41 38 ?1 29 39 27 0 41 42 38 .04445597072
760115 -.03 -.077 18 41 25 0 43 36 44 39 ?1 29 42 24 0 44 45 39 .088911941455202
4 -.03 -1425286784003444e-32 18 44 22 0 46 41 47 42 ?1 29 45 270 0 47 48 42 .044
4559707276012 .08 .077 18 47 204 0 19 44 49 45 ?1 29 48 271 0 49 50 45 -.0444559
707276012 .08 .077 18 49 203 0 33 47 51 48 ?1 29 50 272 0 51 52 48 -.08891194145
52024 .08 1356928659013526e-32 18 51 202 0 53 49 54 50 ?1 29 52 273 0 54 55 50 -
.0444559707276012 .08 -.077 18 54 201 0 56 51 57 52 ?1 29 55 274 0 57 58 52 .044
45597072760115 .08 -.077 18 57 200 0 59 54 60 55 ?1 29 58 275 0 60 0 55 .0889119
414552024 .08 -1425286784003444e-32 18 60 195 0 61 57 0 58 ?1 17 61 0 24 26 25 6
0 46 15 0 62 +15 255 24 120 0 61 12 0 17 26 0 24 22 61 47 63 64 0 0 -17 25 0 24
 61 22 44 27 65 0 0 +17 46 0 66 67 62 44 61 15 0 68 -16 15 109 0 ?61 69 70 6 0 0
 1 17 62 0 66 46 59 60 71 72 0 63 -15 66 118 0 59 73 0 17 59 0 66 62 67 57 43 69
 0 71 +17 71 0 74 75 63 57 62 72 0 76 +16 72 179 0 ?71 77 64 78 0 0 1 17 63 0 74
 71 79 60 26 64 0 0 +15 74 232 0 63 80 0 17 79 0 74 63 81 47 32 82 0 26 +16 64 1
76 0 ?63 72 0 83 0 0 1 30 83 263 0 64 0 78 0 +.0444559707276012 .08 .077 .5 0 -.
866025403784439 30 78 262 0 72 83 84 0 +.0889119414552024 .08 -1425286784003444e
-32 -.5 0 -.866025403784439 30 84 261 0 77 78 85 0 +.04445597072760115 .08 -.077
 -1 0 0 16 77 182 0 ?75 86 72 84 0 0 1 30 85 260 0 86 84 87 0 +-.044455970727601
2 .08 -.077 -.5 0 .866025403784439 16 86 185 0 ?88 89 77 85 0 0 1 30 87 259 0 89
 85 90 0 +-.0889119414552024 .08 1356928659013526e-32 .5 0 .866025403784439 16 8
9 188 0 ?81 82 86 87 0 0 1 30 90 258 0 82 87 91 0 +-.0444559707276012 .08 .077 1
 0 1560846336350295e-31 16 82 191 0 ?79 65 89 90 0 0 1 30 91 5 0 65 90 92 0 +.04
44559707276012 -.03 .077 .5 0 -.866025403784439 16 65 4 0 ?25 93 82 91 0 0 1 30
 92 8 0 93 91 94 0 +.0889119414552024 -.03 -1425286784003444e-32 -.5 0 -.8660254
03784439 16 93 7 0 ?67 95 65 92 0 0 1 30 94 11 0 95 92 96 0 +.04445597072760115
 -.03 -.077 -1 0 0 16 95 10 0 ?97 98 93 94 0 0 1 30 96 14 0 98 94 99 0 +-.044455
9707276012 -.03 -.077 -.5 0 .866025403784439 16 98 13 0 ?100 101 95 96 0 0 1 30
 99 17 0 101 96 102 0 +-.0889119414552024 -.03 1356928659013526e-32 .5 0 .866025
403784439 16 101 16 0 ?34 70 98 99 0 0 1 30 102 20 0 70 99 21 0 +-.0444559707276
012 -.03 .077 1 0 1560846336350295e-31 16 70 19 0 ?31 15 101 102 0 0 1 30 21 128
 0 9 102 103 0 +.0444559707276012 -.03 .077 0 1 0 30 103 129 0 20 21 104 0 +-.04
44559707276012 -.03 .077 0 1 0 16 20 105 0 ?33 9 105 103 0 0 1 30 104 130 0 105
 103 106 0 +-.0889119414552024 -.03 1356928659013526e-32 0 1 0 16 105 106 0 ?53
 20 107 104 0 0 1 30 106 131 0 107 104 16 0 +-.0444559707276012 -.03 -.077 0 1 0
 16 107 107 0 ?56 105 69 106 0 0 1 30 16 132 0 69 106 6 0 +.04445597072760115 -.
03 -.077 0 1 0 16 69 108 0 ?59 107 15 16 0 0 1 17 56 0 108 76 97 54 40 107 0 75
 +15 108 116 0 56 109 0 17 76 0 108 43 56 57 75 77 0 0 -17 97 0 108 56 43 36 110
 95 0 0 +17 40 0 111 100 112 36 56 107 0 113 -17 75 0 74 88 71 54 76 77 0 112 +1
7 88 0 74 81 75 51 112 86 0 114 +17 112 0 111 40 53 54 88 86 0 0 -15 111 114 0 5
3 115 0 17 53 0 111 112 100 51 35 105 0 88 +17 100 0 111 53 40 29 113 98 0 0 +17
 35 0 116 34 114 29 53 105 0 117 -15 116 112 0 33 118 0 17 34 0 116 33 35 23 117
 101 0 119 +17 114 0 116 35 33 51 81 89 0 0 -17 117 0 120 113 119 29 34 101 0 10
0 -15 120 3 0 27 121 0 17 113 0 120 110 117 36 100 98 0 97 -17 119 0 120 117 27
 23 31 70 0 0 -17 27 0 120 119 68 10 25 65 0 31 -17 31 0 30 19 28 10 119 70 0 0
 +15 30 110 0 19 122 0 17 19 0 30 32 31 47 22 9 0 79 +17 32 0 30 28 19 49 79 82
 0 0 -14 255 122 111 123 ?118 12 30 4 124 +0 0 118 12 18 81 255 1 123 335 125 12
2 126 0 0 127 128 14 118 113 127 ?115 122 116 4 129 +0 0 115 122 18 14 12 121 13
0 ?122 0 24 4 5 +0 0 122 0 18 50 124 122 0 122 131 129 0 +-.0444559707276012 -.0
3 .077 -1560846336350295e-31 0 1 1 0 1560846336350295e-31 13 18 41 0 0 0 0 0 0 8
 12 50 131 2 0 121 132 124 0 +0 -.03 0 0 1 0 0 0 1 50 129 123 0 118 124 133 0 +-
.0889119414552024 -.03 1356928659013526e-32 -.866025403784439 0 .5 .5 0 .8660254
03784439 50 133 124 0 115 129 134 0 +-.0444559707276012 -.03 -.077 -.86602540378
4439 0 -.5 -.5 0 .866025403784439 14 115 115 135 ?109 118 111 4 133 +0 0 109 118
 18 50 134 125 0 109 133 14 0 +.04445597072760115 -.03 -.077 0 0 -1 -1 0 0 14 10
9 117 136 ?73 115 108 4 134 +0 0 73 115 18 50 14 126 0 73 134 5 0 +.088911941455
2024 -.03 -1425286784003444e-32 .866025403784439 0 -.5 -.5 0 -.866025403784439 1
4 73 119 137 ?121 109 66 4 14 +0 0 121 109 18 81 1 137 340 125 73 138 0 136 139
 140 14 121 1 139 ?80 73 120 4 131 -0 0 80 73 18 81 1 139 341 125 121 141 0 137
 142 143 14 80 230 142 ?0 121 74 4 132 +0 0 0 121 18 81 1 142 342 125 80 144 0 1
39 0 145 50 132 245 0 80 0 131 0 +0 .08 0 0 1 0 0 0 1 80 255 1 125 146 147 9000
 1 1 1 1 1 1 1 1 0 FFFFTFTFFFFFFF1 81 1 144 316 148 80 0 142 141 0 149 82 255 1
 145 1723924640 80 1 148 0 150 8001 0 0 0 0 3 5 0 0 0 FFFFTFTFFFFFFF2 81 1 141 3
15 148 121 0 139 138 144 151 83 255 3 149 1 1 1 81 1 138 314 148 73 0 137 152 14
1 153 83 3 151 1 1 1 81 1 152 313 148 109 0 136 154 138 155 83 3 153 1 1 1 81 1
 136 339 125 109 152 0 135 137 156 81 1 154 312 148 115 0 135 157 152 158 83 3 1
55 1 1 1 81 1 135 338 125 115 154 0 130 136 159 81 1 157 311 148 118 0 127 126 1
54 160 83 3 158 1 1 1 81 1 127 336 125 118 157 0 123 130 161 81 1 126 310 148 12
2 0 123 162 157 163 83 3 160 1 1 1 81 1 162 309 148 12 0 130 0 126 164 83 3 163
 1 1 1 81 1 130 337 125 12 162 0 127 135 165 83 3 164 1 1 1 82 1 165 1715142816
 82 1 161 1714618528 82 1 159 1714749600 82 1 156 1714880672 79 255 15 150 SDL/T
YSA_COLOUR79 14 147 SWEntUnchanged82 1 143 1705181344 82 1 140 1715011744 82 1 1
28 1714487456 17 68 0 120 27 110 44 67 93 0 25 -17 110 0 120 68 113 41 97 95 0 6
7 -17 67 0 66 59 46 41 68 93 0 0 +17 33 0 116 114 34 49 28 20 0 81 +17 81 0 74 7
9 88 49 114 89 0 32 +17 43 0 108 97 76 41 59 69 0 110 -19 13 135 0 1 0 8 4 S0 74
 4 CI16 index_map_offset0 0 1 dCCZ20 11 2 0 0 142 144 0 0 0 0 0 0 0 0 0 0 0 0 0
 0 0 0 0 0 1 0 
